<svg width="668" height="187" viewBox="0 0 668 187" fill="none" xmlns="http://www.w3.org/2000/svg">
<path fill-rule="evenodd" clip-rule="evenodd" d="M12.4031 45.9244C4.35798 60.0035 0.000145936 76.0938 0.000144441 93.1897L0.000137906 167.943L0.000137701 170.289C0.00013729 174.982 1.67621 178.67 4.69315 181.686C8.04529 184.703 11.7327 186.379 16.0905 186.379L96.2069 186.379L98.8885 186.379C114.979 186.379 129.393 182.357 142.802 173.977C155.875 165.931 166.267 154.869 173.641 140.79C181.016 126.711 184.704 110.621 184.704 93.1898C184.704 75.7586 180.681 60.0035 172.636 45.9244C164.591 31.8454 153.529 20.4481 139.45 12.403C125.371 4.3578 109.615 -6.56441e-06 92.1843 -8.08829e-06C75.0884 -9.58287e-06 59.6685 4.35779 45.5894 12.403C31.5104 20.4481 20.4483 31.8454 12.4031 45.9244Z" fill="url(#paint0_linear_237_383)"/>
<path fill-rule="evenodd" clip-rule="evenodd" d="M49.5481 49.0845C49.6273 49.0845 49.7064 49.085 49.7853 49.0861L50.4014 49.0861C53.3836 49.0861 56.1905 49.8463 58.6464 51.2497C61.1024 52.6531 63.0905 54.5828 64.4939 57.0387C65.8973 59.4947 66.6575 62.1846 66.6575 65.1668C66.6575 65.2865 66.6563 65.4058 66.654 65.5246C66.6628 65.7498 66.6672 65.9762 66.6672 66.2036L66.6672 122.934C66.6672 124.477 65.4159 125.729 63.8723 125.729H59.4756C45.4866 125.729 34.1462 114.388 34.1462 100.399L34.1462 66.5176C34.1456 66.4573 34.1453 66.3969 34.1453 66.3363L34.1453 65.8685L34.1453 51.8929C34.1453 51.806 34.1491 51.7206 34.1566 51.6367C34.2192 50.9091 34.5606 50.2612 35.0734 49.8002C35.4984 49.4132 35.9976 49.1721 36.5992 49.1052C36.7113 49.0915 36.8254 49.0845 36.9412 49.0845L49.5481 49.0845ZM94.2263 81.5683C93.8994 81.5884 93.5685 81.5984 93.2335 81.5984H92.7657L78.7901 81.5984C78.0299 81.5984 77.3867 81.306 76.8019 80.7797C76.2756 80.2534 75.9833 79.6102 75.9833 78.7915V78.3822V65.3422C75.9833 62.36 76.7434 59.5532 78.1469 57.0972C79.5503 54.6412 81.4799 52.6531 83.9359 51.2497C86.3919 49.8463 89.0817 49.0861 92.064 49.0861C92.2493 49.0861 92.4336 49.0889 92.6168 49.0945C92.8116 49.088 93.0072 49.0847 93.2035 49.0847L151.589 49.0847C153.133 49.0847 154.384 50.336 154.384 51.8796V56.2389C154.384 70.2279 143.044 81.5683 129.055 81.5683H94.2263ZM93.2346 125.233C93.5695 125.233 93.9002 125.223 94.227 125.203H113.054C127.043 125.203 138.384 113.863 138.384 99.8738V95.5145C138.384 93.9709 137.132 92.7196 135.589 92.7196H93.2024C93.0065 92.7196 92.8115 92.7229 92.6172 92.7294C92.4343 92.7238 92.2503 92.721 92.0651 92.721C89.0829 92.721 86.393 93.4811 83.9371 94.8846C81.4811 96.288 79.5514 98.2761 78.148 100.732C76.7446 103.188 75.9844 105.995 75.9844 108.977V122.017V122.426C75.9844 123.245 76.2768 123.888 76.8031 124.415C77.3878 124.941 78.0311 125.233 78.7912 125.233H92.7668H93.2346ZM66.6295 152.339C66.6295 155.321 65.8693 158.128 64.4659 160.584C63.0625 163.04 61.1328 165.028 58.6768 166.432C56.2209 167.835 53.531 168.595 50.5488 168.595C47.5081 168.595 44.7597 167.835 42.3037 166.432C39.8478 165.028 37.9181 163.04 36.5147 160.584C35.1113 158.128 34.4096 155.38 34.4096 152.339C34.4096 149.298 35.0528 146.492 36.3393 144.036C37.6257 141.58 39.4385 139.65 41.719 138.247C44.058 136.785 46.5725 136.083 49.3793 136.083H49.8471H63.8227C64.5829 136.083 65.2261 136.375 65.8108 136.902C66.3371 137.428 66.6295 138.071 66.6295 138.89V139.299V152.339Z" fill="white"/>
<path d="M259.18 41.5123H288.51V16.5713H258.382C225.659 16.5713 218.875 33.3316 218.277 58.0731H203.911V82.0164H218.277V167.813H246.211V82.0164H288.51V58.0731H246.211C246.41 46.3009 248.006 41.5123 259.18 41.5123Z" fill="white"/>
<path d="M344.572 169.808C364.125 169.808 375.498 164.62 382.083 154.843V167.813H410.017V58.0724H382.083V70.8422C375.698 61.2649 364.325 56.0771 344.572 56.0771C306.063 56.0771 287.108 75.8304 287.108 112.943C287.108 148.459 304.666 169.808 344.572 169.808ZM315.042 112.943C315.042 93.3889 327.412 83.0134 348.562 83.0134C370.311 83.0134 382.083 94.187 382.083 112.943C382.083 132.496 369.712 142.872 348.562 142.872C326.814 142.872 315.042 131.698 315.042 112.943Z" fill="white"/>
<path d="M509.557 107.954V167.813H537.491V107.954C537.491 75.6309 515.742 56.0771 485.414 56.0771C467.057 56.0771 455.884 61.0654 449.299 70.4432V58.0724H421.365V167.813H449.299V107.954C449.299 91.7926 461.67 83.0134 479.428 83.0134C497.785 83.0134 509.557 92.5907 509.557 107.954Z" fill="white"/>
<path d="M602.555 169.808C622.109 169.808 633.482 164.62 640.066 154.843V167.813H668V58.0724H640.066V70.8422C633.681 61.2649 622.308 56.0771 602.555 56.0771C564.046 56.0771 545.091 75.8304 545.091 112.943C545.091 148.459 562.65 169.808 602.555 169.808ZM573.025 112.943C573.025 93.3889 585.396 83.0134 606.546 83.0134C628.294 83.0134 640.066 94.187 640.066 112.943C640.066 132.496 627.696 142.872 606.546 142.872C584.797 142.872 573.025 131.698 573.025 112.943Z" fill="white"/>
<defs>
<linearGradient id="paint0_linear_237_383" x1="184.704" y1="0" x2="-32.8237" y2="53.8928" gradientUnits="userSpaceOnUse">
<stop stop-color="#0F5366"/>
<stop offset="1" stop-color="#03313F"/>
</linearGradient>
</defs>
</svg>
